<?xml version="1.0" encoding="UTF-8" standalone="no"?>
<svg
   xmlns:dc="http://purl.org/dc/elements/1.1/"
   xmlns:cc="http://creativecommons.org/ns#"
   xmlns:rdf="http://www.w3.org/1999/02/22-rdf-syntax-ns#"
   xmlns:svg="http://www.w3.org/2000/svg"
   xmlns="http://www.w3.org/2000/svg"
   xmlns:sodipodi="http://sodipodi.sourceforge.net/DTD/sodipodi-0.dtd"
   xmlns:inkscape="http://www.inkscape.org/namespaces/inkscape"
   width="16"
   height="16"
   version="1.1"
   id="svg8"
   sodipodi:docname="blender2.svg"
   inkscape:version="0.92.4 5da689c313, 2019-01-14">
  <metadata
     id="metadata14">
    <rdf:RDF>
      <cc:Work
         rdf:about="">
        <dc:format>image/svg+xml</dc:format>
        <dc:type
           rdf:resource="http://purl.org/dc/dcmitype/StillImage" />
      </cc:Work>
    </rdf:RDF>
  </metadata>
  <defs
     id="defs12" />
  <sodipodi:namedview
     pagecolor="#ffffff"
     bordercolor="#666666"
     borderopacity="1"
     objecttolerance="10"
     gridtolerance="10"
     guidetolerance="10"
     inkscape:pageopacity="0"
     inkscape:pageshadow="2"
     inkscape:window-width="1920"
     inkscape:window-height="1058"
     id="namedview10"
     showgrid="false"
     inkscape:zoom="20.85965"
     inkscape:cx="5.9211609"
     inkscape:cy="11.394453"
     inkscape:window-x="1920"
     inkscape:window-y="22"
     inkscape:window-maximized="0"
     inkscape:current-layer="svg8" />
  <path
     fill="#f4b43f"
     d="m7.172 0.51367c-0.25562 0-0.51116 0.099-0.70703 0.29492-0.39174 0.39173-0.39174 1.0223 0 1.4141l2.7774 2.7773h-7.2422c-0.554 0-1 0.446-1 1s0.446 1 1 1c1.2758-0.003 2.2729-0.00083 3.9297 0l-5.123 5.1211c-0.39174 0.39174-0.39174 1.0223 0 1.4141 0.39174 0.39174 1.0243 0.39174 1.416 0 0.91708-0.92204 1.6458-1.647 2.832-2.832a5 5 0 0 0 4.9451 4.297 5 5 0 0 0 5 -5 5 5 0 0 0 -1.4668 -3.5332l0.002-0.002s-3.8246-3.8147-5.6562-5.6562c-0.1956-0.19592-0.4511-0.29497-0.7067-0.29497z"
     id="path2"
     style="fill:#408ef4;fill-opacity:1" />
  <circle
     fill="#fff"
     cx="10"
     cy="10"
     r="3"
     id="circle4" />
  <circle
     fill="#408ef4"
     cx="10"
     cy="10"
     r="2"
     id="circle6"
     style="fill:#f4b43f;fill-opacity:1" />
</svg>
